<?xml version="1.0" encoding="UTF-8" standalone="no"?>
<svg
   xmlns:dc="http://purl.org/dc/elements/1.1/"
   xmlns:cc="http://creativecommons.org/ns#"
   xmlns:rdf="http://www.w3.org/1999/02/22-rdf-syntax-ns#"
   xmlns:svg="http://www.w3.org/2000/svg"
   xmlns="http://www.w3.org/2000/svg"
   viewBox="0 0 1344 1344"
   height="1344"
   width="1344"
   xml:space="preserve"
   id="svg2"
   version="1.1"><metadata
     id="metadata8"><rdf:RDF><cc:Work
         rdf:about=""><dc:format>image/svg+xml</dc:format><dc:type
           rdf:resource="http://purl.org/dc/dcmitype/StillImage" /></cc:Work></rdf:RDF></metadata><defs
     id="defs6"><clipPath
       id="clipPath18"
       clipPathUnits="userSpaceOnUse"><path
         style="clip-rule:evenodd"
         id="path16"
         d="M 1.502e-5,0 H 1008 V 1008 H 1.502e-5 Z" /></clipPath></defs><g
     transform="matrix(1.3333333,0,0,-1.3333333,0,1344)"
     id="g10"><g
       id="g12"><g
         clip-path="url(#clipPath18)"
         id="g14" /></g><path
       id="path20"
       style="fill:#000000;fill-opacity:1;fill-rule:evenodd;stroke:none"
       d="m 503.9,477.85 h 31.45 l -32.25,55 -32.25,-55 z m -31.55,0.65 30.9,52.65 30.6,-52.65 h -31.1 z" /><path
       id="path22"
       style="fill:none;stroke:#000000;stroke-width:0.14;stroke-linecap:round;stroke-linejoin:round;stroke-miterlimit:10;stroke-dasharray:none;stroke-opacity:1"
       d="m 503.9,477.85 h 31.45 l -32.25,55 -32.25,-55 z m -31.55,0.65 30.9,52.65 30.6,-52.65 h -31.1 z" /><path
       id="path24"
       style="fill:#209000;fill-opacity:1;fill-rule:evenodd;stroke:none"
       d="m 520.3,486.8 h -34.4 l 17.2,28.95 z" /><path
       id="path26"
       style="fill:none;stroke:#000000;stroke-width:0.5;stroke-linecap:round;stroke-linejoin:round;stroke-miterlimit:10;stroke-dasharray:none;stroke-opacity:1"
       d="m 520.3,486.8 h -34.4 l 17.2,28.95 z" /><path
       id="path28"
       style="fill:#000000;fill-opacity:1;fill-rule:evenodd;stroke:none"
       d="m 486.4,490.3 -1.3,1.4 1.45,2.2 1.8,-0.3 0.5,0.75 -6.2,0.65 -0.5,-0.65 3.75,-4.85 z m -2.6,3.3 -0.85,0.75 0.7,-0.15 h 0.45 l 1.65,-0.15 -1,-1.75 z" /><path
       id="path30"
       style="fill:none;stroke:#000000;stroke-width:0.14;stroke-linecap:round;stroke-linejoin:round;stroke-miterlimit:10;stroke-dasharray:none;stroke-opacity:1"
       d="m 486.4,490.3 -1.3,1.4 1.45,2.2 1.8,-0.3 0.5,0.75 -6.2,0.65 -0.5,-0.65 3.75,-4.85 z m -2.6,3.3 -0.85,0.75 0.7,-0.15 h 0.45 l 1.65,-0.15 -1,-1.75 z" /><path
       id="path32"
       style="fill:#000000;fill-opacity:1;fill-rule:evenodd;stroke:none"
       d="m 489.05,494.7 -4.95,2.8 0.35,0.65 4.4,-2.35 1.65,2.5 0.5,-0.3 z" /><path
       id="path34"
       style="fill:none;stroke:#000000;stroke-width:0.14;stroke-linecap:round;stroke-linejoin:round;stroke-miterlimit:10;stroke-dasharray:none;stroke-opacity:1"
       d="m 489.05,494.7 -4.95,2.8 0.35,0.65 4.4,-2.35 1.65,2.5 0.5,-0.3 z" /><path
       id="path36"
       style="fill:#000000;fill-opacity:1;fill-rule:evenodd;stroke:none"
       d="m 491.3,498.45 -5.7,1.4 0.5,0.65 3.75,-0.95 1.15,-0.3 -0.5,0.45 -0.15,0.3 -2.95,3 0.65,0.8 2.95,-0.65 1.95,-0.6 -1,0.95 -2.6,2.5 0.5,0.6 3.9,-4.05 -0.45,-0.8 -4.25,1.1 -0.5,0.15 h -0.2 l 0.5,-0.45 2.95,-3.3 z" /><path
       id="path38"
       style="fill:none;stroke:#000000;stroke-width:0.14;stroke-linecap:round;stroke-linejoin:round;stroke-miterlimit:10;stroke-dasharray:none;stroke-opacity:1"
       d="m 491.3,498.45 -5.7,1.4 0.5,0.65 3.75,-0.95 1.15,-0.3 -0.5,0.45 -0.15,0.3 -2.95,3 0.65,0.8 2.95,-0.65 1.95,-0.6 -1,0.95 -2.6,2.5 0.5,0.6 3.9,-4.05 -0.45,-0.8 -4.25,1.1 -0.5,0.15 h -0.2 l 0.5,-0.45 2.95,-3.3 z" /><path
       id="path40"
       style="fill:#000000;fill-opacity:1;fill-rule:evenodd;stroke:none"
       d="m 494.6,503.8 -1.3,1.4 1.45,2.2 1.8,-0.3 0.5,0.75 -6.2,0.65 -0.35,-0.65 3.6,-4.85 z m -2.65,3.3 -0.65,0.75 0.5,-0.15 h 0.5 l 1.65,-0.15 -1,-1.7 z" /><path
       id="path42"
       style="fill:none;stroke:#000000;stroke-width:0.14;stroke-linecap:round;stroke-linejoin:round;stroke-miterlimit:10;stroke-dasharray:none;stroke-opacity:1"
       d="m 494.6,503.8 -1.3,1.4 1.45,2.2 1.8,-0.3 0.5,0.75 -6.2,0.65 -0.35,-0.65 3.6,-4.85 z m -2.65,3.3 -0.65,0.75 0.5,-0.15 h 0.5 l 1.65,-0.15 -1,-1.7 z" /><path
       id="path44"
       style="fill:#000000;fill-opacity:1;fill-rule:evenodd;stroke:none"
       d="m 497.55,508.65 -2.15,1.25 -4.1,-0.45 0.5,0.8 2.15,0.15 1.15,0.15 -0.5,0.95 -1,1.7 0.5,0.95 1.8,-3.6 1.95,-1.25 z" /><path
       id="path46"
       style="fill:none;stroke:#000000;stroke-width:0.14;stroke-linecap:round;stroke-linejoin:round;stroke-miterlimit:10;stroke-dasharray:none;stroke-opacity:1"
       d="m 497.55,508.65 -2.15,1.25 -4.1,-0.45 0.5,0.8 2.15,0.15 1.15,0.15 -0.5,0.95 -1,1.7 0.5,0.95 1.8,-3.6 1.95,-1.25 z" /><path
       id="path48"
       style="fill:#000000;fill-opacity:1;fill-rule:evenodd;stroke:none"
       d="m 497.2,511.95 0.35,0.65 0.8,-0.15 0.8,0.3 0.5,0.6 0.35,0.65 v 0.8 l -0.35,0.3 h -0.5 l -0.65,-0.15 -0.15,-0.3 -0.5,-0.5 -0.5,-0.6 -0.45,-0.35 -0.85,-0.3 -0.65,0.3 -0.65,0.65 v 0.8 l 0.35,1.1 0.8,0.9 1,0.5 0.95,-0.3 -0.5,-0.65 h -0.8 l -0.5,-0.3 -0.3,-0.5 -0.35,-0.45 v -0.5 l 0.15,-0.45 0.2,-0.15 h 0.65 l 0.3,0.15 0.65,0.65 0.5,0.6 0.5,0.3 0.8,0.5 0.85,-0.3 0.65,-0.65 0.15,-0.95 -0.3,-1.1 -1,-0.95 -1.15,-0.45 z" /><path
       id="path50"
       style="fill:none;stroke:#000000;stroke-width:0.14;stroke-linecap:round;stroke-linejoin:round;stroke-miterlimit:10;stroke-dasharray:none;stroke-opacity:1"
       d="m 497.2,511.95 0.35,0.65 0.8,-0.15 0.8,0.3 0.5,0.6 0.35,0.65 v 0.8 l -0.35,0.3 h -0.5 l -0.65,-0.15 -0.15,-0.3 -0.5,-0.5 -0.5,-0.6 -0.45,-0.35 -0.85,-0.3 -0.65,0.3 -0.65,0.65 v 0.8 l 0.35,1.1 0.8,0.9 1,0.5 0.95,-0.3 -0.5,-0.65 h -0.8 l -0.5,-0.3 -0.3,-0.5 -0.35,-0.45 v -0.5 l 0.15,-0.45 0.2,-0.15 h 0.65 l 0.3,0.15 0.65,0.65 0.5,0.6 0.5,0.3 0.8,0.5 0.85,-0.3 0.65,-0.65 0.15,-0.95 -0.3,-1.1 -1,-0.95 -1.15,-0.45 z" /><path
       id="path52"
       style="fill:#000000;fill-opacity:1;fill-rule:evenodd;stroke:none"
       d="m 504.1,517.75 -0.35,-1.1 0.15,-0.6 0.35,-0.65 1,-0.95 1.1,-0.3 1.35,0.3 0.95,0.95 0.35,1.25 -0.15,0.65 -0.2,0.65 -0.65,0.75 -0.95,0.35 -1,0.15 -1,-0.5 z m 2.1,0.8 0.85,-0.15 0.65,-0.3 0.45,-0.5 0.2,-0.95 -0.2,-0.9 -0.8,-0.65 -0.65,-0.3 h -0.8 l -0.65,0.3 -0.5,0.65 -0.35,0.6 V 517 l 0.35,0.6 0.65,0.5 z" /><path
       id="path54"
       style="fill:none;stroke:#000000;stroke-width:0.14;stroke-linecap:round;stroke-linejoin:round;stroke-miterlimit:10;stroke-dasharray:none;stroke-opacity:1"
       d="m 504.1,517.75 -0.35,-1.1 0.15,-0.6 0.35,-0.65 1,-0.95 1.1,-0.3 1.35,0.3 0.95,0.95 0.35,1.25 -0.15,0.65 -0.2,0.65 -0.65,0.75 -0.95,0.35 -1,0.15 -1,-0.5 z m 2.1,0.8 0.85,-0.15 0.65,-0.3 0.45,-0.5 0.2,-0.95 -0.2,-0.9 -0.8,-0.65 -0.65,-0.3 h -0.8 l -0.65,0.3 -0.5,0.65 -0.35,0.6 V 517 l 0.35,0.6 0.65,0.5 z" /><path
       id="path56"
       style="fill:#000000;fill-opacity:1;fill-rule:evenodd;stroke:none"
       d="m 505.9,512.9 4.25,2.5 0.3,-0.6 -1.95,-4.25 3.45,1.9 0.3,-0.65 -4.25,-2.35 -0.3,0.6 1.8,4.1 -3.3,-1.9 z" /><path
       id="path58"
       style="fill:none;stroke:#000000;stroke-width:0.14;stroke-linecap:round;stroke-linejoin:round;stroke-miterlimit:10;stroke-dasharray:none;stroke-opacity:1"
       d="m 505.9,512.9 4.25,2.5 0.3,-0.6 -1.95,-4.25 3.45,1.9 0.3,-0.65 -4.25,-2.35 -0.3,0.6 1.8,4.1 -3.3,-1.9 z" /><path
       id="path60"
       style="fill:#000000;fill-opacity:1;fill-rule:evenodd;stroke:none"
       d="m 512.45,506 0.45,0.3 1.15,-1.9 -1.6,-0.9 -1.15,0.6 -0.65,0.8 -0.5,1.4 v 0.8 l 0.15,0.45 0.5,0.65 0.5,0.3 0.65,0.3 0.65,0.15 1.3,-0.3 1,-1.1 0.3,-0.95 v -0.95 l -0.3,-0.6 -0.5,0.45 0.3,0.5 v 0.6 l -0.3,0.65 -0.5,0.6 -0.65,0.35 -0.5,0.15 -1,-0.5 -0.8,-0.75 -0.15,-0.8 0.3,-0.95 0.5,-0.8 0.85,-0.3 0.8,0.5 z" /><path
       id="path62"
       style="fill:none;stroke:#000000;stroke-width:0.14;stroke-linecap:round;stroke-linejoin:round;stroke-miterlimit:10;stroke-dasharray:none;stroke-opacity:1"
       d="m 512.45,506 0.45,0.3 1.15,-1.9 -1.6,-0.9 -1.15,0.6 -0.65,0.8 -0.5,1.4 v 0.8 l 0.15,0.45 0.5,0.65 0.5,0.3 0.65,0.3 0.65,0.15 1.3,-0.3 1,-1.1 0.3,-0.95 v -0.95 l -0.3,-0.6 -0.5,0.45 0.3,0.5 v 0.6 l -0.3,0.65 -0.5,0.6 -0.65,0.35 -0.5,0.15 -1,-0.5 -0.8,-0.75 -0.15,-0.8 0.3,-0.95 0.5,-0.8 0.85,-0.3 0.8,0.5 z" /><path
       id="path64"
       style="fill:#000000;fill-opacity:1;fill-rule:evenodd;stroke:none"
       d="m 518.15,502.4 0.35,-0.65 -2.45,-1.25 -1.15,-0.5 -0.85,0.2 -0.95,0.9 -0.35,1.1 0.15,0.8 0.5,0.5 0.5,0.3 2.45,1.4 0.35,-0.65 -2.3,-1.25 -0.5,-0.3 -0.5,-0.3 -0.15,-0.65 0.3,-0.6 0.5,-0.5 0.35,-0.3 h 0.5 l 0.8,0.3 z" /><path
       id="path66"
       style="fill:none;stroke:#000000;stroke-width:0.14;stroke-linecap:round;stroke-linejoin:round;stroke-miterlimit:10;stroke-dasharray:none;stroke-opacity:1"
       d="m 518.15,502.4 0.35,-0.65 -2.45,-1.25 -1.15,-0.5 -0.85,0.2 -0.95,0.9 -0.35,1.1 0.15,0.8 0.5,0.5 0.5,0.3 2.45,1.4 0.35,-0.65 -2.3,-1.25 -0.5,-0.3 -0.5,-0.3 -0.15,-0.65 0.3,-0.6 0.5,-0.5 0.35,-0.3 h 0.5 l 0.8,0.3 z" /><path
       id="path68"
       style="fill:#000000;fill-opacity:1;fill-rule:evenodd;stroke:none"
       d="m 514.55,498.9 1.65,0.35 1.15,-1.9 -0.85,-1.4 0.35,-0.65 3.1,4.4 -0.3,0.5 -5.4,-0.65 z m 3.75,0.5 1,0.3 -0.65,-0.8 -0.8,-1.1 -1,1.45 z" /><path
       id="path70"
       style="fill:none;stroke:#000000;stroke-width:0.14;stroke-linecap:round;stroke-linejoin:round;stroke-miterlimit:10;stroke-dasharray:none;stroke-opacity:1"
       d="m 514.55,498.9 1.65,0.35 1.15,-1.9 -0.85,-1.4 0.35,-0.65 3.1,4.4 -0.3,0.5 -5.4,-0.65 z m 3.75,0.5 1,0.3 -0.65,-0.8 -0.8,-1.1 -1,1.45 z" /><path
       id="path72"
       style="fill:#000000;fill-opacity:1;fill-rule:evenodd;stroke:none"
       d="m 517.5,494.35 1.8,1.1 0.5,-0.6 0.15,-0.35 v -0.45 l -0.15,-0.3 -0.15,-0.8 -0.7,-1.1 0.5,-0.8 0.65,1.6 0.35,0.75 -0.15,0.35 0.65,-0.5 0.5,-0.15 h 0.3 l 0.65,0.15 0.35,0.65 0.15,0.6 -0.15,0.35 -0.2,0.6 -1.3,1.9 L 517,495 Z m 3.75,2.2 0.85,-1.4 0.15,-0.8 -0.35,-0.45 -0.3,-0.15 -0.5,0.15 -0.5,0.6 -0.8,1.3 z" /><path
       id="path74"
       style="fill:none;stroke:#000000;stroke-width:0.14;stroke-linecap:round;stroke-linejoin:round;stroke-miterlimit:10;stroke-dasharray:none;stroke-opacity:1"
       d="m 517.5,494.35 1.8,1.1 0.5,-0.6 0.15,-0.35 v -0.45 l -0.15,-0.3 -0.15,-0.8 -0.7,-1.1 0.5,-0.8 0.65,1.6 0.35,0.75 -0.15,0.35 0.65,-0.5 0.5,-0.15 h 0.3 l 0.65,0.15 0.35,0.65 0.15,0.6 -0.15,0.35 -0.2,0.6 -1.3,1.9 L 517,495 Z m 3.75,2.2 0.85,-1.4 0.15,-0.8 -0.35,-0.45 -0.3,-0.15 -0.5,0.15 -0.5,0.6 -0.8,1.3 z" /><path
       id="path76"
       style="fill:#000000;fill-opacity:1;fill-rule:evenodd;stroke:none"
       d="m 520.6,489.2 0.5,-0.65 0.5,-0.45 0.65,-0.2 0.8,0.2 1,0.3 0.8,0.8 0.5,0.9 -0.15,0.8 -0.35,0.8 -0.95,1.55 -4.25,-2.5 z m 3.1,3.3 0.65,-0.95 0.2,-0.65 0.15,-0.3 -0.15,-0.8 -0.35,-0.45 -0.5,-0.35 -0.95,-0.3 h -0.65 l -0.5,0.3 -0.5,0.65 -0.65,0.95 z" /><path
       id="path78"
       style="fill:none;stroke:#000000;stroke-width:0.14;stroke-linecap:round;stroke-linejoin:round;stroke-miterlimit:10;stroke-dasharray:none;stroke-opacity:1"
       d="m 520.6,489.2 0.5,-0.65 0.5,-0.45 0.65,-0.2 0.8,0.2 1,0.3 0.8,0.8 0.5,0.9 -0.15,0.8 -0.35,0.8 -0.95,1.55 -4.25,-2.5 z m 3.1,3.3 0.65,-0.95 0.2,-0.65 0.15,-0.3 -0.15,-0.8 -0.35,-0.45 -0.5,-0.35 -0.95,-0.3 h -0.65 l -0.5,0.3 -0.5,0.65 -0.65,0.95 z" /><path
       id="path80"
       style="fill:#000000;fill-opacity:1;fill-rule:evenodd;stroke:none"
       d="m 485.25,482.25 h 1.15 l 0.35,-0.6 0.8,-0.15 0.8,0.15 0.2,0.45 v 0.3 l -0.5,0.2 h -0.35 l -0.45,0.15 -0.85,0.3 -0.5,0.15 -0.3,0.5 -0.15,0.45 0.3,0.65 0.65,0.45 1,0.15 h 0.8 l 0.65,-0.3 0.5,-0.5 0.15,-0.6 h -1.15 l -0.3,0.45 -0.65,0.15 -0.65,-0.15 -0.2,-0.3 0.2,-0.3 0.3,-0.15 0.65,-0.2 0.65,-0.15 0.5,-0.15 0.5,-0.3 0.35,-0.8 -0.35,-0.8 -0.65,-0.45 -1.15,-0.3 -1,0.15 -0.65,0.3 -0.45,0.5 z" /><path
       id="path82"
       style="fill:none;stroke:#000000;stroke-width:0.14;stroke-linecap:round;stroke-linejoin:round;stroke-miterlimit:10;stroke-dasharray:none;stroke-opacity:1"
       d="m 485.25,482.25 h 1.15 l 0.35,-0.6 0.8,-0.15 0.8,0.15 0.2,0.45 v 0.3 l -0.5,0.2 h -0.35 l -0.45,0.15 -0.85,0.3 -0.5,0.15 -0.3,0.5 -0.15,0.45 0.3,0.65 0.65,0.45 1,0.15 h 0.8 l 0.65,-0.3 0.5,-0.5 0.15,-0.6 h -1.15 l -0.3,0.45 -0.65,0.15 -0.65,-0.15 -0.2,-0.3 0.2,-0.3 0.3,-0.15 0.65,-0.2 0.65,-0.15 0.5,-0.15 0.5,-0.3 0.35,-0.8 -0.35,-0.8 -0.65,-0.45 -1.15,-0.3 -1,0.15 -0.65,0.3 -0.45,0.5 z" /><path
       id="path84"
       style="fill:#000000;fill-opacity:1;fill-rule:evenodd;stroke:none"
       d="m 490.15,480.85 v 4.55 h 3.95 v -0.8 h -2.95 v -1.1 h 2.8 v -0.6 h -2.8 v -1.25 h 3.1 v -0.8 z" /><path
       id="path86"
       style="fill:none;stroke:#000000;stroke-width:0.14;stroke-linecap:round;stroke-linejoin:round;stroke-miterlimit:10;stroke-dasharray:none;stroke-opacity:1"
       d="m 490.15,480.85 v 4.55 h 3.95 v -0.8 h -2.95 v -1.1 h 2.8 v -0.6 h -2.8 v -1.25 h 3.1 v -0.8 z" /><path
       id="path88"
       style="fill:#000000;fill-opacity:1;fill-rule:evenodd;stroke:none"
       d="m 498.05,482.6 0.95,-0.35 -0.3,-0.6 -0.5,-0.5 -0.65,-0.3 h -0.65 l -1,0.15 -0.8,0.5 -0.5,0.6 -0.15,0.95 0.15,1.1 0.5,0.8 0.8,0.45 1,0.15 0.8,-0.15 0.8,-0.3 0.5,-0.95 -1.15,-0.15 -0.3,0.45 -0.85,0.35 -0.45,-0.2 -0.5,-0.3 -0.2,-0.45 -0.15,-0.65 0.15,-0.8 0.2,-0.45 0.5,-0.3 h 0.45 l 0.85,0.15 z" /><path
       id="path90"
       style="fill:none;stroke:#000000;stroke-width:0.14;stroke-linecap:round;stroke-linejoin:round;stroke-miterlimit:10;stroke-dasharray:none;stroke-opacity:1"
       d="m 498.05,482.6 0.95,-0.35 -0.3,-0.6 -0.5,-0.5 -0.65,-0.3 h -0.65 l -1,0.15 -0.8,0.5 -0.5,0.6 -0.15,0.95 0.15,1.1 0.5,0.8 0.8,0.45 1,0.15 0.8,-0.15 0.8,-0.3 0.5,-0.95 -1.15,-0.15 -0.3,0.45 -0.85,0.35 -0.45,-0.2 -0.5,-0.3 -0.2,-0.45 -0.15,-0.65 0.15,-0.8 0.2,-0.45 0.5,-0.3 h 0.45 l 0.85,0.15 z" /><path
       id="path92"
       style="fill:#000000;fill-opacity:1;fill-rule:evenodd;stroke:none"
       d="m 499.5,485.4 h 1 v -2.5 l 0.15,-0.5 v -0.3 l 0.3,-0.45 0.7,-0.15 0.8,0.15 0.3,0.3 v 0.3 0.65 2.5 h 1 v -2.5 -0.65 l -0.15,-0.45 -0.15,-0.65 -0.7,-0.45 -0.95,-0.15 -0.85,0.15 h -0.45 l -0.5,0.45 -0.35,0.5 -0.15,0.6 v 0.65 z" /><path
       id="path94"
       style="fill:none;stroke:#000000;stroke-width:0.14;stroke-linecap:round;stroke-linejoin:round;stroke-miterlimit:10;stroke-dasharray:none;stroke-opacity:1"
       d="m 499.5,485.4 h 1 v -2.5 l 0.15,-0.5 v -0.3 l 0.3,-0.45 0.7,-0.15 0.8,0.15 0.3,0.3 v 0.3 0.65 2.5 h 1 v -2.5 -0.65 l -0.15,-0.45 -0.15,-0.65 -0.7,-0.45 -0.95,-0.15 -0.85,0.15 h -0.45 l -0.5,0.45 -0.35,0.5 -0.15,0.6 v 0.65 z" /><path
       id="path96"
       style="fill:#000000;fill-opacity:1;fill-rule:evenodd;stroke:none"
       d="m 505.4,480.85 v 1.9 h 0.15 0.65 l 0.35,-0.15 0.15,-0.35 0.5,-0.45 0.65,-0.95 h 1.3 l -0.65,0.8 -0.35,0.45 -0.3,0.3 -0.5,0.5 0.65,0.15 0.35,0.15 0.3,0.5 v 0.45 l -0.15,0.8 -0.65,0.45 h -0.5 -0.8 -2.15 v -4.55 z m 0,3.75 h 0.8 0.65 0.2 l 0.45,-0.15 0.2,-0.3 -0.2,-0.45 -0.3,-0.2 h -0.35 -0.65 -0.8 z" /><path
       id="path98"
       style="fill:none;stroke:#000000;stroke-width:0.14;stroke-linecap:round;stroke-linejoin:round;stroke-miterlimit:10;stroke-dasharray:none;stroke-opacity:1"
       d="m 505.4,480.85 v 1.9 h 0.15 0.65 l 0.35,-0.15 0.15,-0.35 0.5,-0.45 0.65,-0.95 h 1.3 l -0.65,0.8 -0.35,0.45 -0.3,0.3 -0.5,0.5 0.65,0.15 0.35,0.15 0.3,0.5 v 0.45 l -0.15,0.8 -0.65,0.45 h -0.5 -0.8 -2.15 v -4.55 z m 0,3.75 h 0.8 0.65 0.2 l 0.45,-0.15 0.2,-0.3 -0.2,-0.45 -0.3,-0.2 h -0.35 -0.65 -0.8 z" /><path
       id="path100"
       style="fill:#000000;fill-opacity:1;fill-rule:evenodd;stroke:none"
       d="m 509.65,480.85 h 1 v 4.55 h -1 z" /><path
       id="path102"
       style="fill:none;stroke:#000000;stroke-width:0.14;stroke-linecap:round;stroke-linejoin:miter;stroke-miterlimit:8;stroke-dasharray:none;stroke-opacity:1"
       d="m 509.65,480.85 h 1 v 4.55 h -1 z" /><path
       id="path104"
       style="fill:#000000;fill-opacity:1;fill-rule:evenodd;stroke:none"
       d="m 512.75,480.85 v 3.75 h -1.65 v 0.8 h 4.25 v -0.8 h -1.6 v -3.75 z" /><path
       id="path106"
       style="fill:none;stroke:#000000;stroke-width:0.14;stroke-linecap:round;stroke-linejoin:round;stroke-miterlimit:8;stroke-dasharray:none;stroke-opacity:1"
       d="m 512.75,480.85 v 3.75 h -1.65 v 0.8 h 4.25 v -0.8 h -1.6 v -3.75 z" /><path
       id="path108"
       style="fill:#000000;fill-opacity:1;fill-rule:evenodd;stroke:none"
       d="m 517.65,480.85 v 1.9 l -1.95,2.65 h 1.3 l 1.3,-1.9 1.15,1.9 h 1.3 l -1.95,-2.65 v -1.9 z" /><path
       id="path110"
       style="fill:none;stroke:#000000;stroke-width:0.14;stroke-linecap:round;stroke-linejoin:round;stroke-miterlimit:8;stroke-dasharray:none;stroke-opacity:1"
       d="m 517.65,480.85 v 1.9 l -1.95,2.65 h 1.3 l 1.3,-1.9 1.15,1.9 h 1.3 l -1.95,-2.65 v -1.9 z" /><path
       id="path112"
       style="fill:#000000;fill-opacity:1;fill-rule:evenodd;stroke:none"
       d="m 500.85,510.35 9.5,-17.4 0.5,0.15 -9.5,17.45 z" /><path
       id="path114"
       style="fill:#000000;fill-opacity:1;fill-rule:evenodd;stroke:none"
       d="m 500.85,510.35 9.35,-18.95 0.5,0.2 -9.35,18.95 z" /><path
       id="path116"
       style="fill:#000000;fill-opacity:1;fill-rule:evenodd;stroke:none"
       d="m 504.25,510.2 -9.3,-17.45 -0.5,0.2 9.3,17.4 z" /><path
       id="path118"
       style="fill:#000000;fill-opacity:1;fill-rule:evenodd;stroke:none"
       d="m 504.1,510.35 -9.5,-18.95 h -0.15 l 9.45,18.95 z" /><path
       id="path120"
       style="fill:#000000;fill-opacity:1;fill-rule:evenodd;stroke:none"
       d="m 493.6,494.15 -0.55,-0.55 -0.15,-0.5 v -0.5 l 0.35,-0.35 0.65,-0.5 0.7,-0.15 h 0.65 l 0.85,0.15 0.7,0.2 z" /><path
       id="path122"
       style="fill:none;stroke:#000000;stroke-width:0.34999999;stroke-linecap:round;stroke-linejoin:round;stroke-miterlimit:8;stroke-dasharray:none;stroke-opacity:1"
       d="m 493.6,494.15 -0.55,-0.55 -0.15,-0.5 v -0.5 l 0.35,-0.35 0.65,-0.5 0.7,-0.15 h 0.65 l 0.85,0.15 0.7,0.2 z" /><path
       id="path124"
       style="fill:#000000;fill-opacity:1;fill-rule:evenodd;stroke:none"
       d="m 507.8,492.1 0.7,-0.15 0.85,-0.2 H 510 l 0.7,0.2 0.65,0.5 0.35,0.3 v 0.55 l -0.15,0.5 -0.5,0.5 z" /><path
       id="path126"
       style="fill:none;stroke:#000000;stroke-width:0.34999999;stroke-linecap:round;stroke-linejoin:round;stroke-miterlimit:8;stroke-dasharray:none;stroke-opacity:1"
       d="m 507.8,492.1 0.7,-0.15 0.85,-0.2 H 510 l 0.7,0.2 0.65,0.5 0.35,0.3 v 0.55 l -0.15,0.5 -0.5,0.5 z" /><path
       id="path128"
       style="fill:#000000;fill-opacity:1;fill-rule:evenodd;stroke:none"
       d="m 493.6,491.6 -0.7,-1.55 v -1.5 l 1.35,3.05 z" /><path
       id="path130"
       style="fill:none;stroke:#000000;stroke-width:0.34999999;stroke-linecap:round;stroke-linejoin:round;stroke-miterlimit:8;stroke-dasharray:none;stroke-opacity:1"
       d="m 493.6,491.6 -0.7,-1.55 v -1.5 l 1.35,3.05 z" /><path
       id="path132"
       style="fill:#000000;fill-opacity:1;fill-rule:evenodd;stroke:none"
       d="m 510.35,491.6 1.35,-3.05 v 1.5 l -0.65,1.55 z" /><path
       id="path134"
       style="fill:none;stroke:#000000;stroke-width:0.34999999;stroke-linecap:round;stroke-linejoin:round;stroke-miterlimit:8;stroke-dasharray:none;stroke-opacity:1"
       d="m 510.35,491.6 1.35,-3.05 v 1.5 l -0.65,1.55 z" /><path
       id="path136"
       style="fill:#c0c0c0;fill-opacity:1;fill-rule:evenodd;stroke:none"
       d="m 502.4,488.2 h 0.64999 v 44.5 H 502.4 Z" /><path
       id="path138"
       style="fill:#c0c0c0;fill-opacity:1;fill-rule:evenodd;stroke:none"
       d="m 516.8,508.35 -28.65,-3.25 v 0.7 l 28.65,3.2 z" /><path
       id="path140"
       style="fill:#c0c0c0;fill-opacity:1;fill-rule:evenodd;stroke:none"
       d="m 494.6,515.1 14.4,-14.35 0.15,0.15 -14.4,14.4 z" /><path
       id="path142"
       style="fill:#c0c0c0;fill-opacity:1;fill-rule:evenodd;stroke:none"
       d="M 515.45,514.95 485.1,496 l -0.15,0.15 30.3,18.95 z" /><path
       id="path144"
       style="fill:#c0c0c0;fill-opacity:1;fill-rule:evenodd;stroke:none"
       d="m 510.7,515.1 -12.9,-12.7 -0.15,0.2 12.85,12.7 z" /><path
       id="path146"
       style="fill:#c0c0c0;fill-opacity:1;fill-rule:evenodd;stroke:none"
       d="m 499.35,515.3 7.95,-22.2 h 0.15 l -7.95,22.2 z" /></g></svg>