<?xml version="1.0" encoding="UTF-8" standalone="no"?>
<svg
   xmlns:dc="http://purl.org/dc/elements/1.1/"
   xmlns:cc="http://creativecommons.org/ns#"
   xmlns:rdf="http://www.w3.org/1999/02/22-rdf-syntax-ns#"
   xmlns:svg="http://www.w3.org/2000/svg"
   xmlns="http://www.w3.org/2000/svg"
   viewBox="0 0 816 1056"
   height="1056"
   width="816"
   xml:space="preserve"
   id="svg2"
   version="1.1"><metadata
     id="metadata8"><rdf:RDF><cc:Work
         rdf:about=""><dc:format>image/svg+xml</dc:format><dc:type
           rdf:resource="http://purl.org/dc/dcmitype/StillImage" /></cc:Work></rdf:RDF></metadata><defs
     id="defs6"><clipPath
       id="clipPath20"
       clipPathUnits="userSpaceOnUse"><path
         style="clip-rule:evenodd"
         id="path18"
         d="M 6.6e-5,1.18e-4 H 612 V 542.75 H 6.6e-5 Z" /></clipPath><clipPath
       id="clipPath30"
       clipPathUnits="userSpaceOnUse"><path
         style="clip-rule:evenodd"
         id="path28"
         d="M 0,0 H 66.725998 V 57.563999 H 0 Z" /></clipPath><clipPath
       id="clipPath38"
       clipPathUnits="userSpaceOnUse"><path
         style="clip-rule:evenodd"
         id="path36"
         d="M 0,0 H 66.720001 V 57.504002 H 0 Z" /></clipPath></defs><g
     transform="translate(0,2.64e-5)"
     id="g10"><g
       transform="scale(1.33333)"
       id="g12"><g
         id="g14"><g
           clip-path="url(#clipPath20)"
           id="g16"><g
             transform="matrix(9.4416,0,0,9.4286,6.2e-5,9.3e-5)"
             id="g22"><g
               id="g24"><g
                 clip-path="url(#clipPath30)"
                 id="g26"><g
                   id="g32"><g
                     clip-path="url(#clipPath38)"
                     id="g34"><g
                       id="g40" /></g></g><g
                   id="g42"><path
                     id="path44"
                     style="fill:#000000;fill-opacity:1;fill-rule:evenodd;stroke:none"
                     d="M 33.150002,54.849998 H 64.599998 L 32.349998,-0.15 0.1,54.849998 Z M 1.6,54.200001 32.5,1.55 63.099998,54.200001 H 32 Z" /></g><g
                   id="g46"><path
                     id="path48"
                     style="fill:none;stroke:#000000;stroke-width:0.14;stroke-linecap:round;stroke-linejoin:round;stroke-miterlimit:10;stroke-dasharray:none;stroke-opacity:1"
                     d="M 33.150002,54.849998 H 64.599998 L 32.349998,-0.15 0.1,54.849998 Z M 1.6,54.200001 32.5,1.55 63.099998,54.200001 H 32 Z" /></g><g
                   id="g50"><path
                     id="path52"
                     style="fill:#209000;fill-opacity:1;fill-rule:evenodd;stroke:none"
                     d="M 49.549999,45.900002 H 15.15 L 32.349998,16.950001 Z" /></g><g
                   id="g54"><path
                     id="path56"
                     style="fill:none;stroke:#000000;stroke-width:0.5;stroke-linecap:round;stroke-linejoin:round;stroke-miterlimit:10;stroke-dasharray:none;stroke-opacity:1"
                     d="M 49.549999,45.900002 H 15.15 L 32.349998,16.950001 Z" /></g><g
                   id="g58"><path
                     id="path60"
                     style="fill:#000000;fill-opacity:1;fill-rule:evenodd;stroke:none"
                     d="M 15.65,42.400002 14.35,41 l 1.45,-2.200001 1.8,0.299999 0.5,-0.75 -6.2,-0.649997 -0.5,0.649997 3.75,4.850003 z m -2.6,-3.300004 -0.85,-0.75 L 12.9,38.5 h 0.45 l 1.65,0.150002 -1,1.75 z" /></g><g
                   id="g62"><path
                     id="path64"
                     style="fill:none;stroke:#000000;stroke-width:0.14;stroke-linecap:round;stroke-linejoin:round;stroke-miterlimit:10;stroke-dasharray:none;stroke-opacity:1"
                     d="M 15.65,42.400002 14.35,41 l 1.45,-2.200001 1.8,0.299999 0.5,-0.75 -6.2,-0.649997 -0.5,0.649997 3.75,4.850003 z m -2.6,-3.300004 -0.85,-0.75 L 12.9,38.5 h 0.45 l 1.65,0.150002 -1,1.75 z" /></g><g
                   id="g66"><path
                     id="path68"
                     style="fill:#000000;fill-opacity:1;fill-rule:evenodd;stroke:none"
                     d="M 18.299999,38 13.35,35.200001 l 0.35,-0.650002 4.4,2.350003 1.65,-2.5 0.5,0.299999 z" /></g><g
                   id="g70"><path
                     id="path72"
                     style="fill:none;stroke:#000000;stroke-width:0.14;stroke-linecap:round;stroke-linejoin:round;stroke-miterlimit:10;stroke-dasharray:none;stroke-opacity:1"
                     d="M 18.299999,38 13.35,35.200001 l 0.35,-0.650002 4.4,2.350003 1.65,-2.5 0.5,0.299999 z" /></g><g
                   id="g74"><path
                     id="path76"
                     style="fill:#000000;fill-opacity:1;fill-rule:evenodd;stroke:none"
                     d="M 20.549999,34.25 14.85,32.849998 l 0.5,-0.649997 3.75,0.950001 1.15,0.299999 L 19.75,33 19.6,32.700001 l -2.95,-3 L 17.299999,28.9 20.25,29.549999 22.200001,30.15 l -1,-0.949999 -2.600001,-2.5 0.5,-0.600001 3.9,4.05 -0.450001,0.800001 -4.25,-1.100001 -0.5,-0.149999 H 17.6 l 0.5,0.449999 2.949999,3.300001 z" /></g><g
                   id="g78"><path
                     id="path80"
                     style="fill:none;stroke:#000000;stroke-width:0.14;stroke-linecap:round;stroke-linejoin:round;stroke-miterlimit:10;stroke-dasharray:none;stroke-opacity:1"
                     d="M 20.549999,34.25 14.85,32.849998 l 0.5,-0.649997 3.75,0.950001 1.15,0.299999 L 19.75,33 19.6,32.700001 l -2.95,-3 L 17.299999,28.9 20.25,29.549999 22.200001,30.15 l -1,-0.949999 -2.600001,-2.5 0.5,-0.600001 3.9,4.05 -0.450001,0.800001 -4.25,-1.100001 -0.5,-0.149999 H 17.6 l 0.5,0.449999 2.949999,3.300001 z" /></g><g
                   id="g82"><path
                     id="path84"
                     style="fill:#000000;fill-opacity:1;fill-rule:evenodd;stroke:none"
                     d="M 23.85,28.9 22.549999,27.5 24,25.299999 25.799999,25.6 l 0.5,-0.75 L 20.1,24.200001 19.75,24.85 l 3.6,4.850001 z m -2.649999,-3.3 -0.650002,-0.75 0.5,0.15 h 0.5 l 1.650002,0.15 -1,1.7 z" /></g><g
                   id="g86"><path
                     id="path88"
                     style="fill:none;stroke:#000000;stroke-width:0.14;stroke-linecap:round;stroke-linejoin:round;stroke-miterlimit:10;stroke-dasharray:none;stroke-opacity:1"
                     d="M 23.85,28.9 22.549999,27.5 24,25.299999 25.799999,25.6 l 0.5,-0.75 L 20.1,24.200001 19.75,24.85 l 3.6,4.850001 z m -2.649999,-3.3 -0.650002,-0.75 0.5,0.15 h 0.5 l 1.650002,0.15 -1,1.7 z" /></g><g
                   id="g90"><path
                     id="path92"
                     style="fill:#000000;fill-opacity:1;fill-rule:evenodd;stroke:none"
                     d="M 26.799999,24.049999 24.65,22.799999 20.549999,23.25 l 0.5,-0.799999 2.150002,-0.150002 L 24.35,22.15 23.85,21.200001 22.85,19.5 23.35,18.549999 25.15,22.15 27.1,23.4 Z" /></g><g
                   id="g94"><path
                     id="path96"
                     style="fill:none;stroke:#000000;stroke-width:0.14;stroke-linecap:round;stroke-linejoin:round;stroke-miterlimit:10;stroke-dasharray:none;stroke-opacity:1"
                     d="M 26.799999,24.049999 24.65,22.799999 20.549999,23.25 l 0.5,-0.799999 2.150002,-0.150002 L 24.35,22.15 23.85,21.200001 22.85,19.5 23.35,18.549999 25.15,22.15 27.1,23.4 Z" /></g><g
                   id="g98"><path
                     id="path100"
                     style="fill:#000000;fill-opacity:1;fill-rule:evenodd;stroke:none"
                     d="M 26.450001,20.75 26.799999,20.1 27.6,20.25 28.4,19.950001 28.9,19.35 29.25,18.700001 V 17.9 L 28.9,17.6 h -0.5 l -0.65,0.15 -0.15,0.299999 -0.5,0.5 L 26.6,19.15 26.15,19.5 25.299999,19.799999 24.65,19.5 24,18.85 v -0.800001 l 0.35,-1.099998 0.8,-0.900002 1,-0.499999 0.95,0.3 -0.5,0.65 h -0.800001 l -0.5,0.299999 L 25,17.299999 24.65,17.75 v 0.5 L 24.799999,18.700001 25,18.85 h 0.65 L 25.950001,18.700001 26.6,18.049999 27.1,17.450001 27.6,17.15 28.4,16.65 29.25,16.950001 29.9,17.6 30.049999,18.549999 29.75,19.65 l -1,0.95 -1.15,0.449999 z" /></g><g
                   id="g102"><path
                     id="path104"
                     style="fill:none;stroke:#000000;stroke-width:0.14;stroke-linecap:round;stroke-linejoin:round;stroke-miterlimit:10;stroke-dasharray:none;stroke-opacity:1"
                     d="M 26.450001,20.75 26.799999,20.1 27.6,20.25 28.4,19.950001 28.9,19.35 29.25,18.700001 V 17.9 L 28.9,17.6 h -0.5 l -0.65,0.15 -0.15,0.299999 -0.5,0.5 L 26.6,19.15 26.15,19.5 25.299999,19.799999 24.65,19.5 24,18.85 v -0.800001 l 0.35,-1.099998 0.8,-0.900002 1,-0.499999 0.95,0.3 -0.5,0.65 h -0.800001 l -0.5,0.299999 L 25,17.299999 24.65,17.75 v 0.5 L 24.799999,18.700001 25,18.85 h 0.65 L 25.950001,18.700001 26.6,18.049999 27.1,17.450001 27.6,17.15 28.4,16.65 29.25,16.950001 29.9,17.6 30.049999,18.549999 29.75,19.65 l -1,0.95 -1.15,0.449999 z" /></g><g
                   id="g106"><path
                     id="path108"
                     style="fill:#000000;fill-opacity:1;fill-rule:evenodd;stroke:none"
                     d="M 33.349998,14.95 33,16.049999 33.150002,16.65 33.5,17.299999 34.5,18.25 35.599998,18.549999 36.950001,18.25 37.900002,17.299999 38.25,16.049999 38.099998,15.4 37.900002,14.75 37.25,14 l -0.950001,-0.35 -1,-0.15 -1,0.5 z m 2.100003,-0.8 0.849998,0.15 0.650002,0.3 0.450001,0.5 0.199996,0.949999 -0.199996,0.900002 L 36.599998,17.6 35.950001,17.9 H 35.150002 L 34.5,17.6 34,16.950001 33.650002,16.35 V 15.7 L 34,15.1 34.650002,14.6 Z" /></g><g
                   id="g110"><path
                     id="path112"
                     style="fill:none;stroke:#000000;stroke-width:0.14;stroke-linecap:round;stroke-linejoin:round;stroke-miterlimit:10;stroke-dasharray:none;stroke-opacity:1"
                     d="M 33.349998,14.95 33,16.049999 33.150002,16.65 33.5,17.299999 34.5,18.25 35.599998,18.549999 36.950001,18.25 37.900002,17.299999 38.25,16.049999 38.099998,15.4 37.900002,14.75 37.25,14 l -0.950001,-0.35 -1,-0.15 -1,0.5 z m 2.100003,-0.8 0.849998,0.15 0.650002,0.3 0.450001,0.5 0.199996,0.949999 -0.199996,0.900002 L 36.599998,17.6 35.950001,17.9 H 35.150002 L 34.5,17.6 34,16.950001 33.650002,16.35 V 15.7 L 34,15.1 34.650002,14.6 Z" /></g><g
                   id="g114"><path
                     id="path116"
                     style="fill:#000000;fill-opacity:1;fill-rule:evenodd;stroke:none"
                     d="m 35.150002,19.799999 4.25,-2.5 L 39.700001,17.9 37.75,22.15 41.200001,20.25 41.5,20.9 37.25,23.25 36.950001,22.65 38.75,18.549999 35.450001,20.450001 Z" /></g><g
                   id="g118"><path
                     id="path120"
                     style="fill:none;stroke:#000000;stroke-width:0.14;stroke-linecap:round;stroke-linejoin:round;stroke-miterlimit:10;stroke-dasharray:none;stroke-opacity:1"
                     d="m 35.150002,19.799999 4.25,-2.5 L 39.700001,17.9 37.75,22.15 41.200001,20.25 41.5,20.9 37.25,23.25 36.950001,22.65 38.75,18.549999 35.450001,20.450001 Z" /></g><g
                   id="g122"><path
                     id="path124"
                     style="fill:#000000;fill-opacity:1;fill-rule:evenodd;stroke:none"
                     d="M 41.700001,26.700001 42.150002,26.4 43.299999,28.299999 41.700001,29.200001 40.549999,28.6 39.900002,27.799999 39.400002,26.4 v -0.8 l 0.149997,-0.45 0.5,-0.65 0.5,-0.299999 0.650002,-0.300001 0.649997,-0.15 1.300004,0.299999 1,1.100001 0.299999,0.95 v 0.949999 L 44.150002,27.65 l -0.5,-0.449999 0.299999,-0.5 V 26.1 L 43.650002,25.450001 43.150002,24.85 42.5,24.5 42,24.35 l -1,0.5 -0.799999,0.75 -0.150002,0.8 0.299999,0.95 0.5,0.8 0.850003,0.300001 0.799999,-0.5 z" /></g><g
                   id="g126"><path
                     id="path128"
                     style="fill:none;stroke:#000000;stroke-width:0.14;stroke-linecap:round;stroke-linejoin:round;stroke-miterlimit:10;stroke-dasharray:none;stroke-opacity:1"
                     d="M 41.700001,26.700001 42.150002,26.4 43.299999,28.299999 41.700001,29.200001 40.549999,28.6 39.900002,27.799999 39.400002,26.4 v -0.8 l 0.149997,-0.45 0.5,-0.65 0.5,-0.299999 0.650002,-0.300001 0.649997,-0.15 1.300004,0.299999 1,1.100001 0.299999,0.95 v 0.949999 L 44.150002,27.65 l -0.5,-0.449999 0.299999,-0.5 V 26.1 L 43.650002,25.450001 43.150002,24.85 42.5,24.5 42,24.35 l -1,0.5 -0.799999,0.75 -0.150002,0.8 0.299999,0.95 0.5,0.8 0.850003,0.300001 0.799999,-0.5 z" /></g><g
                   id="g130"><path
                     id="path132"
                     style="fill:#000000;fill-opacity:1;fill-rule:evenodd;stroke:none"
                     d="m 47.400002,30.299999 0.349998,0.650002 -2.450001,1.25 -1.149997,0.5 L 43.299999,32.5 42.349998,31.6 42,30.5 l 0.150002,-0.799999 0.5,-0.5 0.5,-0.300001 2.449996,-1.4 0.350003,0.65 -2.299999,1.25 -0.5,0.300001 L 42.650002,30 42.5,30.65 l 0.299999,0.6 0.5,0.5 0.350003,0.299999 h 0.5 L 44.950001,31.75 Z" /></g><g
                   id="g134"><path
                     id="path136"
                     style="fill:none;stroke:#000000;stroke-width:0.14;stroke-linecap:round;stroke-linejoin:round;stroke-miterlimit:10;stroke-dasharray:none;stroke-opacity:1"
                     d="m 47.400002,30.299999 0.349998,0.650002 -2.450001,1.25 -1.149997,0.5 L 43.299999,32.5 42.349998,31.6 42,30.5 l 0.150002,-0.799999 0.5,-0.5 0.5,-0.300001 2.449996,-1.4 0.350003,0.65 -2.299999,1.25 -0.5,0.300001 L 42.650002,30 42.5,30.65 l 0.299999,0.6 0.5,0.5 0.350003,0.299999 h 0.5 L 44.950001,31.75 Z" /></g><g
                   id="g138"><path
                     id="path140"
                     style="fill:#000000;fill-opacity:1;fill-rule:evenodd;stroke:none"
                     d="m 43.799999,33.799999 1.650002,-0.349998 1.149997,1.899997 L 45.75,36.75 46.099998,37.400002 49.200001,33 48.900002,32.5 43.5,33.150002 Z m 3.75,-0.5 1,-0.299999 -0.649997,0.799999 -0.800004,1.100003 -1,-1.450001 z" /></g><g
                   id="g142"><path
                     id="path144"
                     style="fill:none;stroke:#000000;stroke-width:0.14;stroke-linecap:round;stroke-linejoin:round;stroke-miterlimit:10;stroke-dasharray:none;stroke-opacity:1"
                     d="m 43.799999,33.799999 1.650002,-0.349998 1.149997,1.899997 L 45.75,36.75 46.099998,37.400002 49.200001,33 48.900002,32.5 43.5,33.150002 Z m 3.75,-0.5 1,-0.299999 -0.649997,0.799999 -0.800004,1.100003 -1,-1.450001 z" /></g><g
                   id="g146"><path
                     id="path148"
                     style="fill:#000000;fill-opacity:1;fill-rule:evenodd;stroke:none"
                     d="M 46.75,38.349998 48.549999,37.25 l 0.5,0.599998 0.150002,0.350003 v 0.450001 l -0.150002,0.299999 -0.149997,0.799999 -0.700001,1.099998 0.5,0.800004 0.649997,-1.600003 0.350003,-0.75 -0.150002,-0.349998 0.650002,0.5 0.5,0.149997 H 51 L 51.650002,39.450001 52,38.799999 52.150002,38.200001 52,37.849998 51.799999,37.25 50.5,35.349998 46.25,37.700001 Z m 3.75,-2.199996 0.849998,1.399997 0.150002,0.799999 -0.349998,0.450001 -0.300004,0.150002 -0.5,-0.150002 -0.5,-0.599998 -0.799999,-1.299999 z" /></g><g
                   id="g150"><path
                     id="path152"
                     style="fill:none;stroke:#000000;stroke-width:0.14;stroke-linecap:round;stroke-linejoin:round;stroke-miterlimit:10;stroke-dasharray:none;stroke-opacity:1"
                     d="M 46.75,38.349998 48.549999,37.25 l 0.5,0.599998 0.150002,0.350003 v 0.450001 l -0.150002,0.299999 -0.149997,0.799999 -0.700001,1.099998 0.5,0.800004 0.649997,-1.600003 0.350003,-0.75 -0.150002,-0.349998 0.650002,0.5 0.5,0.149997 H 51 L 51.650002,39.450001 52,38.799999 52.150002,38.200001 52,37.849998 51.799999,37.25 50.5,35.349998 46.25,37.700001 Z m 3.75,-2.199996 0.849998,1.399997 0.150002,0.799999 -0.349998,0.450001 -0.300004,0.150002 -0.5,-0.150002 -0.5,-0.599998 -0.799999,-1.299999 z" /></g><g
                   id="g154"><path
                     id="path156"
                     style="fill:#000000;fill-opacity:1;fill-rule:evenodd;stroke:none"
                     d="m 49.849998,43.5 0.5,0.650002 0.5,0.449996 0.650002,0.200001 0.799999,-0.200001 1,-0.299999 0.799999,-0.799999 0.5,-0.900002 L 54.450001,41.799999 54.099998,41 l -0.949996,-1.549999 -4.25,2.5 z m 3.100003,-3.299999 0.649997,0.950001 0.200001,0.649997 0.150002,0.299999 -0.150002,0.800004 -0.349998,0.449996 -0.5,0.350003 L 52,44 h -0.650002 l -0.5,-0.299999 -0.5,-0.650002 -0.649997,-0.950001 z" /></g><g
                   id="g158"><path
                     id="path160"
                     style="fill:none;stroke:#000000;stroke-width:0.14;stroke-linecap:round;stroke-linejoin:round;stroke-miterlimit:10;stroke-dasharray:none;stroke-opacity:1"
                     d="m 49.849998,43.5 0.5,0.650002 0.5,0.449996 0.650002,0.200001 0.799999,-0.200001 1,-0.299999 0.799999,-0.799999 0.5,-0.900002 L 54.450001,41.799999 54.099998,41 l -0.949996,-1.549999 -4.25,2.5 z m 3.100003,-3.299999 0.649997,0.950001 0.200001,0.649997 0.150002,0.299999 -0.150002,0.800004 -0.349998,0.449996 -0.5,0.350003 L 52,44 h -0.650002 l -0.5,-0.299999 -0.5,-0.650002 -0.649997,-0.950001 z" /></g><g
                   id="g162"><path
                     id="path164"
                     style="fill:#000000;fill-opacity:1;fill-rule:evenodd;stroke:none"
                     d="m 14.5,50.450001 h 1.15 L 16,51.049999 16.799999,51.200001 17.6,51.049999 17.799999,50.599998 v -0.299999 l -0.5,-0.200001 H 16.950001 L 16.5,49.950001 15.65,49.650002 15.15,49.5 14.85,49 14.7,48.549999 15,47.900002 l 0.65,-0.450001 1,-0.150002 h 0.800001 L 18.1,47.599998 l 0.5,0.5 0.15,0.600003 H 17.6 L 17.299999,48.25 16.65,48.099998 16,48.25 15.8,48.549999 16,48.849998 16.299999,49 16.950001,49.200001 17.6,49.349998 18.1,49.5 18.6,49.799999 18.950001,50.599998 18.6,51.400002 17.950001,51.849998 16.799999,52.150002 15.8,52 l -0.65,-0.299999 -0.45,-0.5 z" /></g><g
                   id="g166"><path
                     id="path168"
                     style="fill:none;stroke:#000000;stroke-width:0.14;stroke-linecap:round;stroke-linejoin:round;stroke-miterlimit:10;stroke-dasharray:none;stroke-opacity:1"
                     d="m 14.5,50.450001 h 1.15 L 16,51.049999 16.799999,51.200001 17.6,51.049999 17.799999,50.599998 v -0.299999 l -0.5,-0.200001 H 16.950001 L 16.5,49.950001 15.65,49.650002 15.15,49.5 14.85,49 14.7,48.549999 15,47.900002 l 0.65,-0.450001 1,-0.150002 h 0.800001 L 18.1,47.599998 l 0.5,0.5 0.15,0.600003 H 17.6 L 17.299999,48.25 16.65,48.099998 16,48.25 15.8,48.549999 16,48.849998 16.299999,49 16.950001,49.200001 17.6,49.349998 18.1,49.5 18.6,49.799999 18.950001,50.599998 18.6,51.400002 17.950001,51.849998 16.799999,52.150002 15.8,52 l -0.65,-0.299999 -0.45,-0.5 z" /></g><g
                   id="g170"><path
                     id="path172"
                     style="fill:#000000;fill-opacity:1;fill-rule:evenodd;stroke:none"
                     d="m 19.4,51.849998 v -4.549999 h 3.95 v 0.799999 H 20.4 v 1.100003 h 2.800001 v 0.599998 H 20.4 v 1.25 h 3.1 v 0.799999 z" /></g><g
                   id="g174"><path
                     id="path176"
                     style="fill:none;stroke:#000000;stroke-width:0.14;stroke-linecap:round;stroke-linejoin:round;stroke-miterlimit:10;stroke-dasharray:none;stroke-opacity:1"
                     d="m 19.4,51.849998 v -4.549999 h 3.95 v 0.799999 H 20.4 v 1.100003 h 2.800001 v 0.599998 H 20.4 v 1.25 h 3.1 v 0.799999 z" /></g><g
                   id="g178"><path
                     id="path180"
                     style="fill:#000000;fill-opacity:1;fill-rule:evenodd;stroke:none"
                     d="m 27.299999,50.099998 0.950001,0.350003 -0.299999,0.599998 -0.5,0.5 -0.650002,0.299999 H 26.15 l -1,-0.149997 -0.8,-0.5 -0.5,-0.600003 L 23.700001,49.650002 23.85,48.549999 24.35,47.75 l 0.8,-0.450001 1,-0.149997 0.800001,0.149997 0.799999,0.299999 0.5,0.950001 L 27.1,48.700001 26.799999,48.25 25.950001,47.900002 25.5,48.099998 25,48.400002 24.799999,48.849998 24.65,49.5 24.799999,50.299999 25,50.75 l 0.5,0.299999 h 0.450001 l 0.849998,-0.149997 z" /></g><g
                   id="g182"><path
                     id="path184"
                     style="fill:none;stroke:#000000;stroke-width:0.14;stroke-linecap:round;stroke-linejoin:round;stroke-miterlimit:10;stroke-dasharray:none;stroke-opacity:1"
                     d="m 27.299999,50.099998 0.950001,0.350003 -0.299999,0.599998 -0.5,0.5 -0.650002,0.299999 H 26.15 l -1,-0.149997 -0.8,-0.5 -0.5,-0.600003 L 23.700001,49.650002 23.85,48.549999 24.35,47.75 l 0.8,-0.450001 1,-0.149997 0.800001,0.149997 0.799999,0.299999 0.5,0.950001 L 27.1,48.700001 26.799999,48.25 25.950001,47.900002 25.5,48.099998 25,48.400002 24.799999,48.849998 24.65,49.5 24.799999,50.299999 25,50.75 l 0.5,0.299999 h 0.450001 l 0.849998,-0.149997 z" /></g><g
                   id="g186"><path
                     id="path188"
                     style="fill:#000000;fill-opacity:1;fill-rule:evenodd;stroke:none"
                     d="m 28.75,47.299999 h 1 v 2.5 l 0.15,0.5 v 0.299999 L 30.200001,51.049999 30.9,51.200001 31.700001,51.049999 32,50.75 v -0.299999 -0.650002 -2.5 h 1 v 2.5 0.650002 L 32.849998,50.900002 32.700001,51.549999 32,52 31.049999,52.150002 30.200001,52 H 29.75 l -0.5,-0.450001 -0.35,-0.5 -0.15,-0.599998 v -0.650002 z" /></g><g
                   id="g190"><path
                     id="path192"
                     style="fill:none;stroke:#000000;stroke-width:0.14;stroke-linecap:round;stroke-linejoin:round;stroke-miterlimit:10;stroke-dasharray:none;stroke-opacity:1"
                     d="m 28.75,47.299999 h 1 v 2.5 l 0.15,0.5 v 0.299999 L 30.200001,51.049999 30.9,51.200001 31.700001,51.049999 32,50.75 v -0.299999 -0.650002 -2.5 h 1 v 2.5 0.650002 L 32.849998,50.900002 32.700001,51.549999 32,52 31.049999,52.150002 30.200001,52 H 29.75 l -0.5,-0.450001 -0.35,-0.5 -0.15,-0.599998 v -0.650002 z" /></g><g
                   id="g194"><path
                     id="path196"
                     style="fill:#000000;fill-opacity:1;fill-rule:evenodd;stroke:none"
                     d="m 34.650002,51.849998 v -1.899997 h 0.149997 0.650002 l 0.349998,0.149997 0.150002,0.350003 0.5,0.450001 0.649997,0.949996 h 1.300004 L 37.75,51.049999 l -0.349998,-0.450001 -0.300004,-0.299999 -0.5,-0.5 L 37.25,49.650002 37.599998,49.5 37.900002,49 V 48.549999 L 37.75,47.75 37.099998,47.299999 h -0.5 -0.799999 -2.149997 v 4.549999 z m 0,-3.75 h 0.799999 0.649997 0.200001 L 36.75,48.25 36.950001,48.549999 36.75,49 36.450001,49.200001 h -0.350003 -0.649997 -0.799999 z" /></g><g
                   id="g198"><path
                     id="path200"
                     style="fill:none;stroke:#000000;stroke-width:0.14;stroke-linecap:round;stroke-linejoin:round;stroke-miterlimit:10;stroke-dasharray:none;stroke-opacity:1"
                     d="m 34.650002,51.849998 v -1.899997 h 0.149997 0.650002 l 0.349998,0.149997 0.150002,0.350003 0.5,0.450001 0.649997,0.949996 h 1.300004 L 37.75,51.049999 l -0.349998,-0.450001 -0.300004,-0.299999 -0.5,-0.5 L 37.25,49.650002 37.599998,49.5 37.900002,49 V 48.549999 L 37.75,47.75 37.099998,47.299999 h -0.5 -0.799999 -2.149997 v 4.549999 z m 0,-3.75 h 0.799999 0.649997 0.200001 L 36.75,48.25 36.950001,48.549999 36.75,49 36.450001,49.200001 h -0.350003 -0.649997 -0.799999 z" /></g><g
                   id="g202"><path
                     id="path204"
                     style="fill:#000000;fill-opacity:1;fill-rule:evenodd;stroke:none"
                     d="m 38.900002,47.299999 h 1 v 4.549999 h -1 z" /></g><g
                   id="g206"><path
                     id="path208"
                     style="fill:none;stroke:#000000;stroke-width:0.14;stroke-linecap:round;stroke-linejoin:miter;stroke-miterlimit:8;stroke-dasharray:none;stroke-opacity:1"
                     d="m 38.900002,47.299999 v 4.549999 h 1 v -4.549999 z" /></g><g
                   id="g210"><path
                     id="path212"
                     style="fill:#000000;fill-opacity:1;fill-rule:evenodd;stroke:none"
                     d="m 42,51.849998 v -3.75 h -1.650002 v -0.799999 h 4.25 v 0.799999 H 43 v 3.75 z" /></g><g
                   id="g214"><path
                     id="path216"
                     style="fill:none;stroke:#000000;stroke-width:0.14;stroke-linecap:round;stroke-linejoin:round;stroke-miterlimit:10;stroke-dasharray:none;stroke-opacity:1"
                     d="m 42,51.849998 v -3.75 h -1.650002 v -0.799999 h 4.25 v 0.799999 H 43 v 3.75 z" /></g><g
                   id="g218"><path
                     id="path220"
                     style="fill:#000000;fill-opacity:1;fill-rule:evenodd;stroke:none"
                     d="M 46.900002,51.849998 V 49.950001 L 44.950001,47.299999 H 46.25 l 1.299999,1.900002 1.150002,-1.900002 H 50 l -1.950001,2.650002 v 1.899997 z" /></g><g
                   id="g222"><path
                     id="path224"
                     style="fill:none;stroke:#000000;stroke-width:0.14;stroke-linecap:round;stroke-linejoin:round;stroke-miterlimit:10;stroke-dasharray:none;stroke-opacity:1"
                     d="M 46.900002,51.849998 V 49.950001 L 44.950001,47.299999 H 46.25 l 1.299999,1.900002 1.150002,-1.900002 H 50 l -1.950001,2.650002 v 1.899997 z" /></g><g
                   id="g226"><path
                     id="path228"
                     style="fill:#000000;fill-opacity:1;fill-rule:evenodd;stroke:none"
                     d="m 30.1,22.35 9.499998,17.4 0.5,-0.150002 L 30.6,22.15 Z" /></g><g
                   id="g230"><path
                     id="path232"
                     style="fill:#000000;fill-opacity:1;fill-rule:evenodd;stroke:none"
                     d="m 30.1,22.35 9.350001,18.949999 0.5,-0.200001 L 30.6,22.15 Z" /></g><g
                   id="g234"><path
                     id="path236"
                     style="fill:#000000;fill-opacity:1;fill-rule:evenodd;stroke:none"
                     d="M 33.5,22.5 24.200001,39.950001 23.700001,39.75 33,22.35 Z" /></g><g
                   id="g238"><path
                     id="path240"
                     style="fill:#000000;fill-opacity:1;fill-rule:evenodd;stroke:none"
                     d="M 33.349998,22.35 23.85,41.299999 H 23.700001 L 33.150002,22.35 Z" /></g><g
                   id="g242"><path
                     id="path244"
                     style="fill:#000000;fill-opacity:1;fill-rule:evenodd;stroke:none"
                     d="m 22.85,38.549999 -0.550001,0.549999 -0.149999,0.5 v 0.5 l 0.35,0.350003 0.65,0.5 0.7,0.149997 H 24.5 L 25.35,40.950001 26.049999,40.75 Z" /></g><g
                   id="g246"><path
                     id="path248"
                     style="fill:none;stroke:#000000;stroke-width:0.34999999;stroke-linecap:round;stroke-linejoin:round;stroke-miterlimit:10;stroke-dasharray:none;stroke-opacity:1"
                     d="m 22.85,38.549999 -0.550001,0.549999 -0.149999,0.5 v 0.5 l 0.35,0.350003 0.65,0.5 0.7,0.149997 H 24.5 L 25.35,40.950001 26.049999,40.75 Z" /></g><g
                   id="g250"><path
                     id="path252"
                     style="fill:#000000;fill-opacity:1;fill-rule:evenodd;stroke:none"
                     d="M 37.049999,40.599998 37.75,40.75 38.599998,40.950001 H 39.25 L 39.950001,40.75 l 0.649997,-0.5 0.350003,-0.299999 v -0.549999 l -0.150002,-0.5 -0.5,-0.5 z" /></g><g
                   id="g254"><path
                     id="path256"
                     style="fill:none;stroke:#000000;stroke-width:0.34999999;stroke-linecap:round;stroke-linejoin:round;stroke-miterlimit:10;stroke-dasharray:none;stroke-opacity:1"
                     d="M 37.049999,40.599998 37.75,40.75 38.599998,40.950001 H 39.25 L 39.950001,40.75 l 0.649997,-0.5 0.350003,-0.299999 v -0.549999 l -0.150002,-0.5 -0.5,-0.5 z" /></g><g
                   id="g258"><path
                     id="path260"
                     style="fill:#000000;fill-opacity:1;fill-rule:evenodd;stroke:none"
                     d="m 22.85,41.099998 -0.7,1.550004 v 1.5 l 1.35,-3.050004 z" /></g><g
                   id="g262"><path
                     id="path264"
                     style="fill:none;stroke:#000000;stroke-width:0.34999999;stroke-linecap:round;stroke-linejoin:round;stroke-miterlimit:10;stroke-dasharray:none;stroke-opacity:1"
                     d="m 22.85,41.099998 -0.7,1.550004 v 1.5 l 1.35,-3.050004 z" /></g><g
                   id="g266"><path
                     id="path268"
                     style="fill:#000000;fill-opacity:1;fill-rule:evenodd;stroke:none"
                     d="m 39.599998,41.099998 1.350003,3.050004 v -1.5 l -0.650002,-1.550004 z" /></g><g
                   id="g270"><path
                     id="path272"
                     style="fill:none;stroke:#000000;stroke-width:0.34999999;stroke-linecap:round;stroke-linejoin:round;stroke-miterlimit:10;stroke-dasharray:none;stroke-opacity:1"
                     d="m 39.599998,41.099998 1.350003,3.050004 v -1.5 l -0.650002,-1.550004 z" /></g><g
                   id="g274"><path
                     id="path276"
                     style="fill:#c0c0c0;fill-opacity:1;fill-rule:evenodd;stroke:none"
                     d="m 31.65,0 h 0.649999 V 44.5 H 31.65 Z" /></g><g
                   id="g278"><path
                     id="path280"
                     style="fill:#c0c0c0;fill-opacity:1;fill-rule:evenodd;stroke:none"
                     d="M 46.049999,24.35 17.4,27.6 v -0.7 l 28.649999,-3.199999 z" /></g><g
                   id="g282"><path
                     id="path284"
                     style="fill:#c0c0c0;fill-opacity:1;fill-rule:evenodd;stroke:none"
                     d="M 23.85,17.6 38.25,31.950001 38.400002,31.799999 24,17.4 Z" /></g><g
                   id="g286"><path
                     id="path288"
                     style="fill:#c0c0c0;fill-opacity:1;fill-rule:evenodd;stroke:none"
                     d="M 44.700001,17.75 14.35,36.700001 14.2,36.549999 44.5,17.6 Z" /></g><g
                   id="g290"><path
                     id="path292"
                     style="fill:#c0c0c0;fill-opacity:1;fill-rule:evenodd;stroke:none"
                     d="M 39.950001,17.6 27.049999,30.299999 26.9,30.1 39.75,17.4 Z" /></g><g
                   id="g294"><path
                     id="path296"
                     style="fill:#c0c0c0;fill-opacity:1;fill-rule:evenodd;stroke:none"
                     d="m 28.6,17.4 7.949999,22.199998 h 0.150002 L 28.75,17.4 Z" /></g></g></g></g></g></g></g></g></svg>