<svg viewBox="0 0 30 30" fill="none" xmlns="http://www.w3.org/2000/svg" id="Calendar--Streamline-Radix" height="30" width="30">
  <desc>
    Calendar Streamline Icon: https://streamlinehq.com
  </desc>
  <path fill-rule="evenodd" clip-rule="evenodd" d="M9 2c0.55228 0 1 0.44772 1 1V4h10v-1c0 -0.55228 0.4478 -1 1 -1s1 0.44772 1 1V4h3c1.6568 0 3 1.34314 3 3v18c0 1.6568 -1.3432 3 -3 3h-20c-1.65686 0 -3 -1.3432 -3 -3v-18C2 5.34314 3.34314 4 5 4H8v-1c0 -0.55228 0.44772 -1 1 -1ZM20 6v1c0 0.55228 0.4478 1 1 1s1 -0.44772 1 -1V6h3c0.5522 0 1 0.44772 1 1V10H4V7c0 -0.55228 0.44772 -1 1 -1H8v1c0 0.55228 0.44772 1 1 1s1 -0.44772 1 -1V6h10ZM4 12v13c0 0.5522 0.44772 1 1 1h20c0.5522 0 1 -0.4478 1 -1V12H4Zm10 3c0 -0.55228 0.44772 -1 1 -1s1 0.44772 1 1 -0.44772 1 -1 1 -1 -0.44772 -1 -1ZM19 14c-0.55228 0 -1 0.44772 -1 1s0.44772 1 1 1 1 -0.44772 1 -1 -0.44772 -1 -1 -1Zm3 1c0 -0.55228 0.4478 -1 1 -1s1 0.44772 1 1 -0.4478 1 -1 1 -1 -0.44772 -1 -1Zm1 3c-0.5522 0 -1 0.44772 -1 1s0.4478 1 1 1 1 -0.44772 1 -1 -0.4478 -1 -1 -1ZM18 19c0 -0.55228 0.44772 -1 1 -1s1 0.44772 1 1 -0.44772 1 -1 1 -1 -0.44772 -1 -1ZM15 18c-0.55228 0 -1 0.44772 -1 1s0.44772 1 1 1 1 -0.44772 1 -1 -0.44772 -1 -1 -1ZM10 19c0 -0.55228 0.44772 -1 1 -1s1 0.44772 1 1 -0.44772 1 -1 1 -1 -0.44772 -1 -1ZM7 18c-0.55228 0 -1 0.44772 -1 1s0.44772 1 1 1 1 -0.44772 1 -1 -0.44772 -1 -1 -1ZM6 23c0 -0.5522 0.44772 -1 1 -1s1 0.4478 1 1 -0.44772 1 -1 1 -1 -0.4478 -1 -1Zm5 -1c-0.55228 0 -1 0.4478 -1 1s0.44772 1 1 1 1 -0.4478 1 -1 -0.44772 -1 -1 -1Zm3 1c0 -0.5522 0.44772 -1 1 -1s1 0.4478 1 1 -0.44772 1 -1 1 -1 -0.4478 -1 -1Zm5 -1c-0.55228 0 -1 0.4478 -1 1s0.44772 1 1 1 1 -0.4478 1 -1 -0.44772 -1 -1 -1Z" fill="#000000" stroke-width="2"></path>
</svg>